
<!-- Generator: visioncortex VTracer 0.6.4 -->
<svg version="1.1" xmlns="http://www.w3.org/2000/svg" viewBox="0 0 500 500" preserveAspectRatio="xMidYMid meet">
<path d="M0 0 C0.79 0.337 1.58 0.675 2.394 1.022 C26.857 11.597 47.865 26.632 67 45 C67.77 45.729 67.77 45.729 68.555 46.472 C103.474 79.63 124.929 126.57 131 174 C131.094 174.714 131.189 175.427 131.286 176.163 C137.706 231.14 122.4 289.3 88.352 333.094 C87.188 334.532 87.188 334.532 86 336 C85.572 336.53 85.143 337.06 84.702 337.605 C51.654 378.142 5.76 406.547 -46 416 C-46.795 416.148 -47.59 416.296 -48.409 416.449 C-104.941 426.498 -164.994 412.762 -212 380 C-221.263 373.353 -229.777 365.882 -238 358 C-238.795 357.246 -238.795 357.246 -239.605 356.477 C-277.597 320.279 -302.307 266.952 -304.125 214.399 C-305.274 163.848 -294.234 115.476 -264 74 C-263.596 73.442 -263.191 72.883 -262.775 72.308 C-256.726 64.025 -250.089 56.402 -243 49 C-242.293 48.252 -242.293 48.252 -241.571 47.488 C-180.648 -16.715 -80.529 -34.926 0 0 Z " fill="#FEFEFE" transform="translate(336,49)"/>
<path d="M0 0 C7.347 2.436 12.898 7.3 18.031 12.901 C22.561 18.215 22.561 18.215 28.547 21.32 C30.858 21.063 30.858 21.063 33.203 20.395 C37.219 19.452 41.084 19.497 45.195 19.52 C46.376 19.519 46.376 19.519 47.58 19.519 C53.039 19.567 57.85 20.274 63.133 21.707 C66.294 22.067 67.702 21.976 70.43 20.273 C71.239 19.612 72.049 18.951 72.883 18.27 C77.692 14.612 82.625 11.572 87.945 8.707 C88.662 8.309 89.379 7.912 90.118 7.502 C94.251 5.319 97.339 4.046 102.133 4.707 C104.981 6.939 105.983 8.257 107.133 11.707 C108.392 25.921 106.627 39.225 102.133 52.707 C102.073 54.227 102.074 55.75 102.111 57.27 C102.131 58.191 102.151 59.112 102.172 60.06 C102.213 61.546 102.213 61.546 102.254 63.062 C102.278 64.079 102.301 65.096 102.325 66.144 C102.402 69.394 102.486 72.644 102.57 75.895 C102.624 78.097 102.676 80.299 102.729 82.502 C102.858 87.904 102.994 93.305 103.133 98.707 C108.413 98.707 113.693 98.707 119.133 98.707 C119.133 99.367 119.133 100.027 119.133 100.707 C111.213 101.202 111.213 101.202 103.133 101.707 C102.143 104.347 101.153 106.987 100.133 109.707 C101.515 109.975 102.897 110.243 104.32 110.52 C108.084 111.345 110.955 112.452 114.133 114.707 C112.57 115.395 112.57 115.395 110.133 115.707 C107.791 114.728 105.458 113.727 103.133 112.707 C100.604 112.285 100.604 112.285 98.133 112.707 C96.545 114.175 96.545 114.175 95.258 116.207 C91.848 120.459 88.077 122.727 83.32 125.207 C82.65 125.557 81.979 125.907 81.288 126.268 C76.452 128.707 76.452 128.707 74.133 128.707 C73.257 131.787 72.761 134.509 73.133 137.707 C75.348 140.423 78.118 141.975 81.133 143.707 C82.551 144.601 83.968 145.496 85.383 146.395 C86.038 146.797 86.692 147.199 87.367 147.613 C89.398 148.871 91.333 150.132 93.133 151.707 C93.133 152.367 93.133 153.027 93.133 153.707 C93.834 153.934 94.535 154.161 95.258 154.395 C99.225 156.206 103.132 158.705 105.133 162.707 C105.648 167.477 105.87 171.423 103.445 175.645 C100.109 178.62 97.701 180.707 93.133 180.707 C93.092 181.676 93.05 182.646 93.008 183.645 C91.877 191.497 86.132 197.072 80.133 201.707 C77.826 204.423 77.826 204.423 78.508 206.895 C78.714 207.493 78.92 208.091 79.133 208.707 C86.197 208.315 90.916 206.72 97.008 203.207 C98.483 202.382 99.96 201.559 101.438 200.738 C102.077 200.373 102.716 200.007 103.375 199.631 C107.114 197.666 110.17 197.6 114.32 197.645 C115.407 197.654 116.494 197.663 117.613 197.672 C118.445 197.683 119.276 197.695 120.133 197.707 C119.723 197.032 119.313 196.356 118.891 195.66 C118.352 194.768 117.813 193.876 117.258 192.957 C116.724 192.075 116.19 191.194 115.641 190.285 C110.921 182.215 109.927 173.371 111.594 164.16 C114.507 153.124 121.283 144.898 130.875 138.918 C137.133 135.561 141.746 134.172 148.82 134.27 C149.611 134.279 150.401 134.289 151.215 134.299 C162.288 134.632 170.047 137.575 178.012 145.426 C185.122 153.073 189.238 161.676 189.57 172.332 C189.048 184.057 184.274 193.076 175.758 201.02 C167.293 208.14 157.953 211.256 146.879 211.031 C138.932 210.093 131.39 206.95 124.133 203.707 C117.526 201.641 109.528 201.371 103.086 203.906 C100.376 205.426 97.755 207.04 95.133 208.707 C89.414 211.826 83.742 214.18 77.133 212.707 C75.375 211.555 75.375 211.555 74.133 209.707 C73.532 205.901 73.726 204.285 75.961 201.109 C76.76 200.296 77.559 199.483 78.383 198.645 C84.585 192.437 84.585 192.437 88.883 184.895 C89.295 183.843 89.708 182.791 90.133 181.707 C89.469 181.742 88.805 181.777 88.121 181.812 C82.657 181.98 79.772 181.723 75.133 178.707 C73.705 178.391 72.265 178.127 70.82 177.895 C61.739 176.261 52.062 172.982 44.445 167.707 C41.351 165.319 41.351 165.319 38.32 166.332 C37.598 166.786 36.877 167.24 36.133 167.707 C35.143 168.037 34.153 168.367 33.133 168.707 C33.133 171.347 33.133 173.987 33.133 176.707 C33.995 177.096 33.995 177.096 34.875 177.492 C37.317 178.806 39.183 180.31 41.258 182.145 C41.941 182.741 42.624 183.338 43.328 183.953 C46.3 186.841 47.466 189.009 47.633 193.082 C47.544 196.988 47.306 197.518 44.508 200.582 C38.44 204.403 34.192 206.275 26.945 205.77 C26.195 205.72 25.445 205.671 24.672 205.62 C17.775 204.984 12.852 202.57 7.133 198.707 C5.304 197.617 3.47 196.533 1.633 195.457 C-0.91 193.922 -3.395 192.355 -5.867 190.707 C-5.867 190.047 -5.867 189.387 -5.867 188.707 C-6.692 189.037 -7.517 189.367 -8.367 189.707 C-16.459 192.019 -22.556 190.555 -29.867 186.707 C-35.564 183.03 -40.092 178.652 -44.359 173.406 C-45.951 171.468 -45.951 171.468 -48.867 169.707 C-50.888 169.648 -50.888 169.648 -52.867 170.707 C-55.116 173.184 -55.116 173.184 -56.867 175.707 C-55.927 176.504 -55.927 176.504 -54.969 177.316 C-54.151 178.023 -53.334 178.729 -52.492 179.457 C-51.68 180.153 -50.868 180.849 -50.031 181.566 C-47.973 183.602 -46.841 185.006 -45.867 187.707 C-46.058 192.958 -47.023 196.071 -50.867 199.707 C-58.026 203.124 -66.532 202.294 -73.867 199.707 C-83.708 194.752 -94.241 185.331 -97.867 174.707 C-98.83 169.305 -98.212 165.11 -95.836 160.195 C-93.283 154.04 -93.524 148.4 -93.805 141.832 C-94.261 130.26 -92.887 120.224 -87.867 109.707 C-88.602 109.439 -89.337 109.171 -90.094 108.895 C-99.771 104.751 -106.294 96.693 -110.375 87.199 C-115.173 74.286 -117.14 60.087 -112.867 46.707 C-112.611 45.898 -112.354 45.088 -112.09 44.254 C-109.337 36.551 -105.086 30.64 -99.055 25.145 C-94.589 23.131 -90.686 22.923 -85.867 23.707 C-83.242 25.145 -83.242 25.145 -81.867 27.707 C-80.422 34.343 -82.814 39.75 -85.578 45.715 C-88.16 51.707 -89.211 57.207 -89.18 63.707 C-89.204 64.716 -89.204 64.716 -89.229 65.746 C-89.237 74.492 -85.045 81.04 -79.43 87.52 C-76.654 89.889 -75.446 90.438 -71.867 90.707 C-69.716 89.672 -69.716 89.672 -67.742 88.02 C-55.98 79.728 -41.825 78.314 -27.867 80.707 C-27.89 80.017 -27.914 79.328 -27.938 78.617 C-28.071 71.681 -27.913 64.873 -24.801 58.535 C-23.453 54.453 -23.696 50.598 -23.805 46.332 C-24.151 29.899 -19.138 14.051 -7.867 1.707 C-4.747 -0.373 -3.606 -0.687 0 0 Z " fill="#4A3220" transform="translate(210.8671875,141.29296875)"/>
<path d="M0 0 C3.214 2.085 6.087 4.518 9 7 C9.735 7.589 10.47 8.178 11.227 8.785 C15.952 12.718 19.816 17.029 23.562 21.875 C24.005 22.447 24.447 23.019 24.902 23.608 C28 27.735 28 27.735 28 30 C28.99 30 29.98 30 31 30 C30.01 27.03 29.02 24.06 28 21 C41.71 16.484 56.945 18.158 69.863 24.379 C71.959 25.523 73.994 26.705 76 28 C73.781 25.092 72.07 23.047 69 21 C69 20.34 69 19.68 69 19 C71.428 17.298 73.846 15.725 76.375 14.188 C77.104 13.74 77.834 13.293 78.585 12.833 C93.388 3.844 93.388 3.844 97.707 4.262 C98.842 4.627 98.842 4.627 100 5 C105.493 15.987 100.627 34.845 97 46 C96.34 46 95.68 46 95 46 C93.273 43.918 93.273 43.918 91.375 41.188 C90.428 39.848 90.428 39.848 89.461 38.48 C88 36 88 36 88 33 C88.33 32.01 88.66 31.02 89 30 C87.35 30.66 85.7 31.32 84 32 C84.451 27.093 86.943 24.022 89.938 20.312 C90.393 19.732 90.849 19.151 91.318 18.553 C93.127 16.263 94.935 14.065 97 12 C92.731 12.467 91.076 14.786 88.438 18 C84.556 22.884 82.483 26.971 81 33 C81.744 33.731 81.744 33.731 82.504 34.477 C91.592 43.962 97.189 54.814 97.098 68.047 C97.096 68.818 97.095 69.589 97.093 70.384 C97.088 72.839 97.075 75.295 97.062 77.75 C97.057 79.418 97.053 81.086 97.049 82.754 C97.038 86.836 97.021 90.918 97 95 C94.69 95.99 92.38 96.98 90 98 C91.98 98 93.96 98 96 98 C95.625 100.437 95.625 100.437 95 103 C92.537 104.231 90.72 104.072 88 104 C89.98 104.495 89.98 104.495 92 105 C89.949 111.09 86.366 113.695 81 117 C60.482 127.109 37.091 127.474 15.359 120.898 C0.325 115.376 -14.051 107.418 -22 93 C-23.553 89.391 -24.839 85.752 -26 82 C-26.33 81.01 -26.66 80.02 -27 79 C-27.766 70.156 -26.628 63.082 -23 55 C-21.68 55.66 -20.36 56.32 -19 57 C-19.495 55.845 -19.99 54.69 -20.5 53.5 C-25.203 39.28 -21.141 24.019 -15.398 10.777 C-11.809 3.649 -8.626 -2.509 0 0 Z " fill="#E4B87C" transform="translate(213,146)"/>
<path d="M0 0 C1.152 0.009 2.305 0.018 3.492 0.027 C4.361 0.039 5.23 0.051 6.125 0.062 C5.645 1.343 5.645 1.343 5.156 2.648 C2.745 10.632 3.028 18.735 6.562 26.312 C16.462 43.648 34.361 54.635 53.272 59.917 C56.211 60.691 59.159 61.398 62.125 62.062 C62.892 62.257 63.659 62.452 64.449 62.652 C76.643 64.522 90.663 64.213 101.875 58.875 C104.779 57.513 106.143 57.062 109.438 57 C112.811 58.334 114.137 60.081 116.125 63.062 C108.125 67.062 108.125 67.062 105.93 68.047 C103.328 69.511 103.049 71.29 102.125 74.062 C101.79 74.679 101.455 75.295 101.109 75.93 C100.016 78.3 99.729 80.221 99.5 82.812 C99.388 84.011 99.388 84.011 99.273 85.234 C99.224 85.838 99.175 86.441 99.125 87.062 C94.436 86.506 90.926 85.181 86.75 83 C85.69 82.452 84.631 81.904 83.539 81.34 C82.742 80.918 81.946 80.497 81.125 80.062 C81.125 79.403 81.125 78.743 81.125 78.062 C81.888 77.464 82.651 76.866 83.438 76.25 C86.153 74.04 87.506 72.13 89.125 69.062 C88.652 69.426 88.179 69.79 87.691 70.164 C74.161 80.45 74.161 80.45 67.125 83.062 C66.474 81.502 65.829 79.939 65.188 78.375 C64.648 77.07 64.648 77.07 64.098 75.738 C63.125 73.062 63.125 73.062 62.621 70.293 C62.376 69.189 62.376 69.189 62.125 68.062 C61.465 67.733 60.805 67.403 60.125 67.062 C60.436 68.646 60.749 70.229 61.062 71.812 C61.237 72.694 61.411 73.576 61.59 74.484 C62.049 76.695 62.558 78.878 63.125 81.062 C62.291 81.016 61.457 80.97 60.598 80.922 C51.06 80.616 44.61 82.075 37.125 88.062 C36.465 88.062 35.805 88.062 35.125 88.062 C33.259 91.65 31.7 95.341 30.125 99.062 C17.9 89.385 7.892 75.642 5.125 60.062 C5.125 70.109 9.454 77.446 14.125 86.062 C14.455 86.722 14.785 87.382 15.125 88.062 C-3.119 87.233 -3.119 87.233 -10.875 82.062 C-10.78 81.072 -10.684 80.082 -10.586 79.062 C-9.538 67.158 -10.561 58.968 -17.875 49.062 C-20.102 46.813 -22.346 44.985 -24.875 43.062 C-23.953 44.314 -23.953 44.314 -23.012 45.59 C-15.977 55.302 -11.237 63.603 -12.875 76.062 C-14.646 81.955 -17.789 85.706 -22.875 89.062 C-26.25 89.875 -26.25 89.875 -28.875 90.062 C-28.875 90.722 -28.875 91.382 -28.875 92.062 C-28.215 92.104 -27.555 92.145 -26.875 92.188 C-22.45 93.478 -19.398 96.165 -15.875 99.062 C-15.05 99.702 -14.225 100.341 -13.375 101 C-11.198 103.993 -11.599 106.469 -11.875 110.062 C-12.865 110.558 -12.865 110.558 -13.875 111.062 C-14.143 109.928 -14.411 108.794 -14.688 107.625 C-15.079 106.449 -15.471 105.274 -15.875 104.062 C-16.865 103.733 -17.855 103.403 -18.875 103.062 C-17.885 104.548 -17.885 104.548 -16.875 106.062 C-17.441 112.629 -17.441 112.629 -18.875 114.062 C-20.541 114.103 -22.209 114.105 -23.875 114.062 C-23.958 112.969 -24.04 111.876 -24.125 110.75 C-24.512 107.03 -24.512 107.03 -26.938 105.125 C-27.577 104.774 -28.216 104.424 -28.875 104.062 C-28.545 104.619 -28.215 105.176 -27.875 105.75 C-26.744 108.365 -26.718 110.243 -26.875 113.062 C-29.741 113.9 -31.361 114.254 -34.199 113.199 C-42.832 107.905 -52.13 100.765 -55.875 91.062 C-56.52 85.953 -56.706 81.703 -54.344 77.039 C-51.875 71.641 -52.74 65.731 -52.938 59.938 C-53.101 50.153 -53.034 42.063 -48.875 33.062 C-48.524 32.194 -48.174 31.325 -47.812 30.43 C-42.356 18.038 -31.66 8.157 -19.188 3.188 C-12.698 0.795 -6.907 -0.07 0 0 Z " fill="#CD9353" transform="translate(172.875,224.9375)"/>
<path d="M0 0 C0.79 0.01 1.58 0.019 2.395 0.03 C13.467 0.362 21.226 3.306 29.191 11.156 C36.301 18.803 40.418 27.407 40.75 38.062 C40.228 49.788 35.453 58.807 26.938 66.75 C18.473 73.87 9.132 76.986 -1.941 76.762 C-9.888 75.824 -17.43 72.68 -24.688 69.438 C-31.294 67.371 -39.292 67.101 -45.734 69.637 C-48.445 71.156 -51.066 72.771 -53.688 74.438 C-59.406 77.557 -65.078 79.911 -71.688 78.438 C-73.445 77.285 -73.445 77.285 -74.688 75.438 C-75.288 71.631 -75.094 70.016 -72.859 66.84 C-71.661 65.62 -71.661 65.62 -70.438 64.375 C-64.235 58.167 -64.235 58.167 -59.938 50.625 C-59.319 49.047 -59.319 49.047 -58.688 47.438 C-61.988 47.438 -65.288 47.438 -68.688 47.438 C-67.368 46.778 -66.048 46.118 -64.688 45.438 C-65.314 45.111 -65.94 44.785 -66.586 44.449 C-67.403 44.012 -68.22 43.575 -69.062 43.125 C-69.875 42.696 -70.687 42.266 -71.523 41.824 C-73.688 40.438 -73.688 40.438 -75.688 37.438 C-76.25 34.75 -76.25 34.75 -75.688 31.438 C-72.767 27.141 -69.585 23.4 -64.688 21.438 C-58.776 20.755 -54.502 22.101 -49.688 25.438 C-46.848 28.918 -46.261 32.041 -45.688 36.438 C-45.358 37.428 -45.027 38.418 -44.688 39.438 C-47.265 42.085 -49.604 44.382 -52.688 46.438 C-53.678 46.438 -54.668 46.438 -55.688 46.438 C-55.729 47.407 -55.77 48.376 -55.812 49.375 C-56.943 57.228 -62.689 62.802 -68.688 67.438 C-70.994 70.153 -70.994 70.153 -70.312 72.625 C-70.106 73.223 -69.9 73.821 -69.688 74.438 C-62.623 74.046 -57.904 72.451 -51.812 68.938 C-50.337 68.113 -48.86 67.29 -47.383 66.469 C-46.744 66.103 -46.104 65.738 -45.446 65.361 C-41.706 63.397 -38.651 63.33 -34.5 63.375 C-32.87 63.389 -32.87 63.389 -31.207 63.402 C-30.376 63.414 -29.544 63.426 -28.688 63.438 C-29.097 62.762 -29.507 62.087 -29.93 61.391 C-30.469 60.499 -31.007 59.607 -31.562 58.688 C-32.096 57.806 -32.63 56.924 -33.18 56.016 C-37.899 47.946 -38.894 39.101 -37.227 29.891 C-34.313 18.854 -27.537 10.628 -17.945 4.648 C-11.687 1.292 -7.075 -0.098 0 0 Z " fill="#4C3422" transform="translate(359.6875,275.5625)"/>
<path d="M0 0 C2 2 2 2 2.438 5.312 C2.332 10.565 0.198 15.027 -1.754 19.832 C-5.956 30.515 -6.505 40.843 -2.125 51.566 C0.979 58.28 5.374 62.384 11 67 C9.532 70.107 7.8 72.905 5.875 75.75 C5.336 76.549 4.797 77.348 4.242 78.172 C3.832 78.775 3.422 79.378 3 80 C-5.534 77.619 -11.67 71.579 -16.375 64.188 C-23.93 50.151 -25.712 34.136 -21.105 18.715 C-17.502 9.865 -11.169 -1.818 0 0 Z " fill="#E3B77C" transform="translate(123,168)"/>
<path d="M0 0 C4.414 1.776 7.195 5.054 10.129 8.656 C15.177 14.564 22.296 19.119 29.941 20.781 C33.87 21.075 37.39 20.896 41.254 20.094 C42.141 19.991 43.028 19.887 43.941 19.781 C44.969 20.753 45.964 21.759 46.941 22.781 C48.498 23.802 50.085 24.778 51.691 25.719 C52.571 26.236 53.45 26.753 54.355 27.285 C57.544 29.13 60.735 30.969 63.941 32.781 C63.941 33.441 63.941 34.101 63.941 34.781 C56.099 34.805 48.257 34.822 40.415 34.833 C36.773 34.838 33.13 34.845 29.487 34.857 C25.96 34.868 22.432 34.874 18.905 34.876 C16.93 34.879 14.955 34.887 12.98 34.895 C4.582 34.895 -3.691 34.491 -12.059 33.781 C-12.059 33.451 -12.059 33.121 -12.059 32.781 C-11.311 32.634 -10.563 32.487 -9.793 32.336 C-3.422 30.905 -3.422 30.905 1.691 27.031 C3.277 22.91 3.274 21 1.941 16.781 C0.171 14.204 -1.859 11.997 -4.059 9.781 C-4.842 8.977 -5.626 8.173 -6.434 7.344 C-6.97 6.828 -7.506 6.312 -8.059 5.781 C-7.158 4.746 -6.238 3.728 -5.309 2.719 C-4.543 1.866 -4.543 1.866 -3.762 0.996 C-2.059 -0.219 -2.059 -0.219 0 0 Z " fill="#F4D2A2" transform="translate(161.05859375,310.21875)"/>
<path d="M0 0 C6.539 -1.09 11.59 1.424 17 5 C21.183 8.63 24.924 12.386 28 17 C28 17.99 28 18.98 28 20 C26.68 20.33 25.36 20.66 24 21 C22.35 19.02 20.7 17.04 19 15 C14.714 15.476 12.779 17.874 10 21 C9.299 22.072 8.598 23.145 7.875 24.25 C6 27 6 27 3 28 C16.046 27.937 30.661 21.786 41 14 C43.67 11.187 45.86 8.225 48 5 C48.993 3.661 49.991 2.326 51 1 C53 4 53 4 52.871 6.875 C50.863 14.079 44.316 19.479 38.125 23.312 C36.432 24.236 34.723 25.132 33 26 C31.703 26.677 31.703 26.677 30.379 27.367 C18.79 33.052 2.772 37.257 -10 33 C-10 31.68 -10 30.36 -10 29 C-8.68 28.67 -7.36 28.34 -6 28 C-5.918 26.845 -5.835 25.69 -5.75 24.5 C-4.881 17.588 -1.542 12.191 3 7 C4.65 7.33 6.3 7.66 8 8 C8.33 7.34 8.66 6.68 9 6 C5.37 5.01 1.74 4.02 -2 3 C-1.34 2.01 -0.68 1.02 0 0 Z M16 15 C16.66 15 17.32 15 18 15 C19.32 17.31 20.64 19.62 22 22 C17.607 24.021 13.847 25.409 9 26 C13.637 17.685 13.637 17.685 16 15 Z " fill="#48301E" transform="translate(336,288)"/>
<path d="M0 0 C3.608 3.071 6.088 6.121 7.938 10.5 C8.037 15.495 6.024 18.663 2.938 22.5 C-3.486 27.451 -9.112 28.215 -17.062 27.5 C-21.175 25.958 -22.62 25.163 -25.062 21.5 C-25.94 15.137 -24.612 11.71 -20.852 6.551 C-15.342 0.235 -8.133 -3.984 0 0 Z " fill="#F2D0A0" transform="translate(277.0625,239.5)"/>
<path d="M0 0 C0.315 0.869 0.629 1.738 0.953 2.633 C4.739 12.826 8.61 19.117 17 26 C15.532 29.107 13.8 31.905 11.875 34.75 C11.336 35.549 10.797 36.348 10.242 37.172 C9.832 37.775 9.422 38.378 9 39 C0.466 36.619 -5.67 30.579 -10.375 23.188 C-13.346 17.795 -15.622 12.006 -17 6 C-13.956 -0.088 -5.949 -0.425 0 0 Z " fill="#E3B77C" transform="translate(117,209)"/>
<path d="M0 0 C3.109 1.594 5.481 3.601 8 6 C9.454 7.207 9.454 7.207 10.938 8.438 C13.551 11.684 14 13.859 14 18 C12.562 19.938 12.562 19.938 11 21 C10.752 19.721 10.505 18.442 10.25 17.125 C9.48 13.733 9.48 13.733 6.875 11.5 C6.256 11.335 5.637 11.17 5 11 C5.495 11.722 5.99 12.444 6.5 13.188 C8.106 16.199 8.528 17.656 8 21 C6.875 22.812 6.875 22.812 5 24 C1.812 24.188 1.812 24.188 -1 24 C-1.121 23.434 -1.242 22.868 -1.367 22.285 C-1.535 21.552 -1.702 20.818 -1.875 20.062 C-2.037 19.332 -2.2 18.601 -2.367 17.848 C-2.83 15.793 -2.83 15.793 -5 15 C-4.67 17.64 -4.34 20.28 -4 23 C-8.077 24.402 -10.919 23.709 -14.863 22.102 C-18.576 20.188 -21.782 17.644 -25 15 C-24.489 10.532 -23.179 8.179 -20 5 C-13.844 0.329 -7.68 -1.611 0 0 Z " fill="#E4B87D" transform="translate(241,319)"/>
<path d="M0 0 C5.096 3.61 8.226 7.534 11.312 12.938 C11.65 13.522 11.987 14.107 12.334 14.709 C14.554 18.741 15.886 22.572 17 27 C16.541 26.59 16.082 26.18 15.609 25.758 C14.996 25.219 14.382 24.68 13.75 24.125 C13.147 23.591 12.543 23.058 11.922 22.508 C10.026 21.02 8.187 19.997 6 19 C7.528 21.751 8.953 23.953 11.188 26.188 C11.786 26.786 12.384 27.384 13 28 C13 28.66 13 29.32 13 30 C11.02 30.99 11.02 30.99 9 32 C7.796 30.47 6.591 28.94 5.387 27.41 C3.943 25.728 3.943 25.728 1 25 C1.681 25.928 2.361 26.856 3.062 27.812 C4.022 29.39 4.022 29.39 5 31 C3.744 34.768 2.49 35.212 -0.875 37.188 C-1.759 37.717 -2.644 38.247 -3.555 38.793 C-6 40 -6 40 -9 40 C-11.983 29.207 -9.504 15.768 -4.398 5.906 C-3.018 3.838 -1.615 1.889 0 0 Z " fill="#F1D0A0" transform="translate(209,155)"/>
<path d="M0 0 C3.28 1.489 5.503 2.847 7.875 5.59 C9.121 8.939 9.083 11.733 8.875 15.277 C8.215 15.607 7.555 15.937 6.875 16.277 C6.607 15.329 6.339 14.38 6.062 13.402 C5.125 10.025 5.125 10.025 1.875 8.277 C2.391 8.979 2.906 9.68 3.438 10.402 C5.211 13.949 5.016 15.527 3.875 19.277 C2.625 21.152 2.625 21.152 0.875 22.277 C-1.812 22.465 -1.812 22.465 -4.125 22.277 C-4.785 19.307 -5.445 16.337 -6.125 13.277 C-7.445 12.947 -8.765 12.617 -10.125 12.277 C-9.63 12.999 -9.135 13.721 -8.625 14.465 C-7.046 17.426 -6.843 18.99 -7.125 22.277 C-12.12 21.802 -15.153 20.326 -19.125 17.277 C-20.634 14.26 -20.625 12.654 -20.125 9.277 C-15.154 1.93 -9.299 -3.162 0 0 Z " fill="#E1B67B" transform="translate(304.125,297.72265625)"/>
<path d="M0 0 C1.562 1.688 1.562 1.688 3 4 C2.746 10.185 -1.71 13.992 -6 18 C-20.389 28.894 -38.815 35.44 -57 34 C-60.562 33 -60.562 33 -63 32 C-63.33 30.35 -63.66 28.7 -64 27 C-62.779 27.035 -61.559 27.07 -60.301 27.105 C-41.077 27.497 -24 23.414 -8.906 10.875 C-5.535 7.559 -2.72 3.857 0 0 Z " fill="#C79052" transform="translate(391,296)"/>
<path d="M0 0 C9.174 6.241 9.174 6.241 10.645 11.152 C10.625 13.062 10.625 13.062 10 16 C9.34 16.33 8.68 16.66 8 17 C7.732 15.866 7.464 14.731 7.188 13.562 C6.796 12.387 6.404 11.211 6 10 C5.01 9.67 4.02 9.34 3 9 C3.99 10.485 3.99 10.485 5 12 C4.434 18.566 4.434 18.566 3 20 C1.334 20.041 -0.334 20.043 -2 20 C-2.083 18.907 -2.165 17.814 -2.25 16.688 C-2.637 12.967 -2.637 12.967 -5.062 11.062 C-5.702 10.712 -6.341 10.361 -7 10 C-6.67 10.557 -6.34 11.114 -6 11.688 C-4.869 14.303 -4.843 16.181 -5 19 C-7.996 19.889 -9.516 20.196 -12.457 19.004 C-13.234 18.528 -14.012 18.053 -14.812 17.562 C-15.603 17.089 -16.393 16.616 -17.207 16.129 C-17.799 15.756 -18.39 15.384 -19 15 C-19.185 12.305 -19.286 10.521 -17.969 8.121 C-13.176 2.627 -7.624 -2.511 0 0 Z " fill="#EAC188" transform="translate(151,319)"/>
<path d="M0 0 C1.562 1.125 1.562 1.125 3 3 C2.572 10.319 -1.841 14.23 -7 19 C-10.183 21.355 -13.468 23.221 -17 25 C-18.297 25.677 -18.297 25.677 -19.621 26.367 C-31.21 32.052 -47.228 36.257 -60 32 C-60 30.68 -60 29.36 -60 28 C-59.296 28.035 -58.592 28.07 -57.867 28.105 C-40.715 28.576 -22.894 23.217 -9 13 C-5.207 9.081 -2.332 4.92 0 0 Z " fill="#C79052" transform="translate(386,289)"/>
<path d="M0 0 C0.99 0.495 0.99 0.495 2 1 C2.474 4.316 2.733 6.889 0.828 9.777 C-11.244 22.453 -29.684 29.936 -46.961 31.316 C-57.251 31.478 -57.251 31.478 -62 29 C-62.66 28.01 -63.32 27.02 -64 26 C-62.438 26.07 -62.438 26.07 -60.844 26.141 C-42.422 26.706 -24.958 22.181 -10 11 C-9.424 10.577 -8.848 10.154 -8.254 9.719 C-4.605 6.88 -2.359 3.901 0 0 Z " fill="#C79052" transform="translate(394,305)"/>
<path d="M0 0 C3.071 2.559 4.574 4.1 5.441 7.969 C5.743 13.024 4.266 16.061 1 20 C-2.251 21.626 -5.498 21.683 -9 21 C-12.247 18.362 -13.634 16.845 -14.441 12.773 C-14.653 8.684 -14.329 6.526 -12.125 3 C-8.51 -0.403 -4.834 -0.952 0 0 Z " fill="#432B1B" transform="translate(249,222)"/>
<path d="M0 0 C7.146 3.275 12.467 8.933 16 16 C16.66 15.01 17.32 14.02 18 13 C17.505 11.515 17.505 11.515 17 10 C17.928 10.278 17.928 10.278 18.875 10.562 C21.042 11.237 21.042 11.237 23 10 C20.444 18.434 14.402 22.884 6.956 27.072 C1.993 29.696 -3.128 31.692 -8.438 33.5 C-9.182 33.755 -9.927 34.011 -10.694 34.274 C-15.302 35.745 -19.167 36.255 -24 36 C-23 34 -23 34 -20 33 C-18.466 31.01 -18.466 31.01 -17.062 28.625 C-15.052 25.334 -13.294 23.063 -10 21 C-8 21 -8 21 -6 22 C-5.34 22.846 -4.68 23.691 -4 24.562 C-3.01 25.769 -3.01 25.769 -2 27 C-0.68 27 0.64 27 2 27 C-1.602 19.94 -6.411 14.481 -13 10 C-12.67 9.34 -12.34 8.68 -12 8 C-5.983 12.366 -0.358 16.905 4 23 C4 23.66 4 24.32 4 25 C5.32 24.01 6.64 23.02 8 22 C3.465 14.424 -1.649 8.901 -9 4 C-8.67 3.34 -8.34 2.68 -8 2 C-1.242 5.989 7.232 11.408 9.719 19.273 C9.812 19.843 9.904 20.413 10 21 C10.99 20.34 11.98 19.68 13 19 C11.097 11.196 6.089 6.836 0 2 C0 1.34 0 0.68 0 0 Z M-10 22 C-11.817 24.246 -11.817 24.246 -13.625 27 C-14.572 28.392 -14.572 28.392 -15.539 29.812 C-16.021 30.534 -16.503 31.256 -17 32 C-14.211 33.395 -12.879 32.581 -9.938 31.688 C-9.039 31.423 -8.141 31.159 -7.215 30.887 C-4.832 30.217 -4.832 30.217 -4 28 C-5.274 25.962 -6.611 23.961 -8 22 C-8.66 22 -9.32 22 -10 22 Z " fill="#472F1D" transform="translate(362,281)"/>
<path d="M0 0 C7.88 3.892 18.119 2.696 26.254 0.113 C27.334 -0.444 28.414 -1 29.527 -1.574 C34.202 -3.221 36.626 -2.575 41.191 -1.074 C41.875 -0.87 42.559 -0.666 43.264 -0.455 C44.933 0.047 46.595 0.577 48.254 1.113 C46.017 3.722 44.621 4.517 41.211 4.844 C39.99 4.965 39.99 4.965 38.743 5.089 C37.86 5.159 36.977 5.229 36.066 5.301 C34.68 5.419 34.68 5.419 33.266 5.54 C-8.445 8.764 -8.445 8.764 -19.746 3.113 C-19.746 2.453 -19.746 1.793 -19.746 1.113 C-12.315 -2.207 -7.45 -3.87 0 0 Z " fill="#F3D1A3" transform="translate(347.74609375,348.88671875)"/>
<path d="M0 0 C9.728 3.293 14.552 13.144 19.434 21.57 C21.058 25.128 21.65 28.123 22 32 C20.68 32 19.36 32 18 32 C17.72 31.261 17.441 30.523 17.152 29.762 C13.403 20.273 9.372 11.193 1 5 C-8.232 17.053 -8.656 32.431 -8 47 C-11.916 43.315 -12.05 39.911 -12.312 34.688 C-12.156 23.005 -8.451 8.451 0 0 Z " fill="#4D3421" transform="translate(208,151)"/>
<path d="M0 0 C1.226 0.153 1.226 0.153 2.477 0.309 C3.416 0.434 3.416 0.434 4.375 0.562 C4.478 1.367 4.581 2.171 4.688 3 C5.228 5.803 5.88 7.994 6.875 10.625 C10.036 19.875 9.931 29.203 7.375 38.562 C6.385 38.233 5.395 37.903 4.375 37.562 C3.606 34.791 3.016 32.133 2.5 29.312 C1.095 22.31 -0.732 15.966 -3.477 9.359 C-4.665 6.464 -5.665 3.541 -6.625 0.562 C-4.104 -0.698 -2.771 -0.356 0 0 Z " fill="#C09059" transform="translate(266.625,165.4375)"/>
<path d="M0 0 C3.078 2.673 3.902 4.34 4.5 8.375 C3.871 12.932 2.598 15.215 0 19 C-3.248 21.166 -4.231 21.552 -8 21 C-10.312 19.625 -10.312 19.625 -12 17 C-12.82 12.161 -12.84 7.652 -10.125 3.438 C-6.939 -0.217 -4.791 -0.575 0 0 Z " fill="#462E1C" transform="translate(295,223)"/>
<path d="M0 0 C0.471 0.41 0.941 0.82 1.426 1.242 C2.36 2.05 2.36 2.05 3.312 2.875 C3.927 3.409 4.542 3.942 5.176 4.492 C7.135 6.164 7.135 6.164 10 8 C8.532 11.107 6.8 13.905 4.875 16.75 C4.336 17.549 3.797 18.348 3.242 19.172 C2.832 19.775 2.422 20.378 2 21 C-3.593 19.636 -6.912 16.846 -11 13 C-10.517 8.69 -9.398 6.976 -6.062 4.25 C-5.352 3.657 -4.642 3.064 -3.91 2.453 C-2 1 -2 1 0 0 Z " fill="#BE8E59" transform="translate(124,227)"/>
<path d="M0 0 C4.463 1.796 7.342 5.189 10.379 8.781 C13.295 12.216 16.113 14.447 19.941 16.781 C19.941 17.111 19.941 17.441 19.941 17.781 C4.84 19.004 4.84 19.004 0.395 16.141 C-1.311 14.104 -2.695 12.057 -4.059 9.781 C-5.375 8.431 -6.698 7.087 -8.059 5.781 C-7.158 4.746 -6.238 3.728 -5.309 2.719 C-4.543 1.866 -4.543 1.866 -3.762 0.996 C-2.059 -0.219 -2.059 -0.219 0 0 Z " fill="#F9F8F7" transform="translate(161.05859375,310.21875)"/>
<path d="M0 0 C6.716 8.795 8.55 20.279 8 31 C6.15 30.821 6.15 30.821 4 30 C2.707 27.779 2.707 27.779 1.598 24.863 C1.182 23.811 0.766 22.758 0.338 21.674 C-0.293 20.01 -0.293 20.01 -0.938 18.312 C-4.676 8.373 -4.676 8.373 -11 0 C-6.995 -0.838 -3.922 -1.284 0 0 Z " fill="#C0905A" transform="translate(253,166)"/>
<path d="M0 0 C-0.33 3.96 -0.66 7.92 -1 12 C-3.289 12.402 -3.289 12.402 -5.625 12.812 C-9.824 13.642 -13.268 14.839 -17 17 C-18 16 -18 16 -18.098 13.059 C-18.086 11.864 -18.074 10.669 -18.062 9.438 C-18.053 8.24 -18.044 7.042 -18.035 5.809 C-18.024 4.882 -18.012 3.955 -18 3 C-11.817 -0.298 -6.984 -0.259 0 0 Z " fill="#E5B97E" transform="translate(118,197)"/>
<path d="M0 0 C0.837 0.508 1.673 1.016 2.535 1.539 C11.069 6.619 19.691 10.558 29 14 C29 14.66 29 15.32 29 16 C21.351 18.55 13.439 16.493 6 14 C4.305 13.049 2.628 12.062 1 11 C0.67 11.66 0.34 12.32 0 13 C0 8.71 0 4.42 0 0 Z " fill="#BD8D58" transform="translate(186,212)"/>
<path d="M0 0 C6.892 0.036 12.143 2.518 17 7.375 C17.464 14.679 17.464 14.679 15 18.375 C14.509 17.808 14.018 17.241 13.512 16.656 C9.679 13.176 5.165 11.081 0.58 8.73 C-0.121 8.355 -0.821 7.98 -1.543 7.594 C-2.183 7.263 -2.822 6.932 -3.481 6.592 C-5.446 5.018 -5.716 3.839 -6 1.375 C-4.317 -0.308 -2.309 0.083 0 0 Z " fill="#A77847" transform="translate(143,285.625)"/>
<path d="M0 0 C0.33 0.66 0.66 1.32 1 2 C2.155 1.959 3.31 1.917 4.5 1.875 C8.945 1.859 12.737 2.782 17 4 C16.125 11.875 16.125 11.875 15 13 C13.296 13.186 11.586 13.323 9.875 13.438 C5.31 13.806 1.335 14.555 -3 16 C-2.52 10.431 -1.701 5.329 0 0 Z " fill="#BE8E59" transform="translate(103,184)"/>
<path d="M0 0 C15.745 1.743 15.745 1.743 23 5 C19.782 8.853 17.194 9.759 12.312 10.688 C10.462 11.043 10.462 11.043 8.574 11.406 C4.382 12.103 0.233 12.635 -4 13 C-3.526 12.526 -3.051 12.051 -2.562 11.562 C-0.319 7.884 -0.263 4.238 0 0 Z " fill="#F4D2A2" transform="translate(258,330)"/>
<path d="M0 0 C16.683 -0.577 16.683 -0.577 22.266 3.223 C28 9.651 28 9.651 28 13 C18.194 13.633 11.321 11.313 3.875 4.812 C2.55 3.577 1.246 2.315 0 1 C0 0.67 0 0.34 0 0 Z " fill="#DEB278" transform="translate(172,315)"/>
<path d="M0 0 C9.947 1.016 16.015 6.774 22.426 14.039 C24.12 16.375 25.105 18.571 26.055 21.285 C24.405 21.945 22.755 22.605 21.055 23.285 C20.582 22.644 20.109 22.004 19.621 21.344 C12.787 12.405 6.163 6.042 -4.945 3.285 C-3.356 1.371 -2.51 0.368 0 0 Z " fill="#C89052" transform="translate(344.9453125,282.71484375)"/>
<path d="M0 0 C0.969 0.887 1.939 1.774 2.938 2.688 C8.99 7.848 14.969 11.487 23 12 C23 12.33 23 12.66 23 13 C16.495 13.138 10.363 12.676 3.938 11.688 C2.668 11.511 2.668 11.511 1.373 11.33 C-4.103 10.507 -8.88 9.113 -14 7 C-13.67 6.01 -13.34 5.02 -13 4 C-8.57 2.35 -4.709 1.77 0 2 C0 1.34 0 0.68 0 0 Z " fill="#F1D0A1" transform="translate(123,330)"/>
<path d="M0 0 C1.257 2.906 2 4.796 2 8 C0.987 8.364 0.987 8.364 -0.047 8.734 C-4.907 10.561 -8.547 11.972 -12 16 C-12.66 16 -13.32 16 -14 16 C-14.99 12.04 -15.98 8.08 -17 4 C-15.35 3.34 -13.7 2.68 -12 2 C-11.402 1.629 -10.804 1.257 -10.188 0.875 C-6.791 -0.484 -3.639 -0.121 0 0 Z " fill="#BF8F59" transform="translate(117,209)"/>
<path d="M0 0 C6.539 -1.09 11.59 1.424 17 5 C21.183 8.63 24.924 12.386 28 17 C28 17.99 28 18.98 28 20 C26.68 20.33 25.36 20.66 24 21 C23.466 20.348 22.933 19.695 22.383 19.023 C15.523 10.977 8.469 5.276 -2 3 C-1.34 2.01 -0.68 1.02 0 0 Z " fill="#C78F52" transform="translate(336,288)"/>
<path d="M0 0 C1.375 0.017 1.375 0.017 2.777 0.035 C3.696 0.044 4.616 0.053 5.562 0.062 C6.273 0.074 6.983 0.086 7.715 0.098 C8.336 1.977 8.336 1.977 8.715 4.098 C7.382 5.431 6.048 6.764 4.715 8.098 C4.38 10.766 4.38 10.766 4.715 13.098 C7.1 12.522 9.382 11.875 11.715 11.098 C10.84 14.973 10.84 14.973 9.715 16.098 C8.153 16.145 6.589 16.135 5.027 16.098 C1.935 16.049 -0.549 16.152 -3.598 16.785 C-6.285 17.098 -6.285 17.098 -9.035 15.91 C-11.313 14.076 -12.259 12.802 -13.285 10.098 C-10.285 10.098 -10.285 10.098 -8.473 11.66 C-6.286 13.384 -6.286 13.384 -3.16 13.098 C-0.067 12.385 -0.067 12.385 1.09 9.535 C1.296 8.731 1.502 7.926 1.715 7.098 C1.075 6.85 0.436 6.603 -0.223 6.348 C-2.285 5.098 -2.285 5.098 -3.098 3.035 C-3.16 2.396 -3.221 1.756 -3.285 1.098 C-2.285 0.098 -2.285 0.098 0 0 Z " fill="#48301E" transform="translate(269.28515625,242.90234375)"/>
<path d="M0 0 C3.437 0.375 6.101 1.079 9 3 C12.81 10.289 14.309 18.502 12 26.438 C11.505 27.706 11.505 27.706 11 29 C10.01 28.67 9.02 28.34 8 28 C7.209 25.165 6.596 22.447 6.062 19.562 C4.682 12.704 3.003 6.358 0 0 Z " fill="#BF8F59" transform="translate(275,168)"/>
<path d="M0 0 C0.66 0 1.32 0 2 0 C-0.609 9.278 -8.637 14.562 -16.523 19.176 C-21.857 21.974 -27.277 24.14 -33 26 C-33.732 26.246 -34.464 26.492 -35.219 26.746 C-42.871 28.88 -51.133 28.163 -59 28 C-59 27.34 -59 26.68 -59 26 C-58.019 25.974 -57.038 25.948 -56.027 25.922 C-37.221 25.224 -18.736 20.056 -4.699 6.957 C-2.872 4.973 -2.872 4.973 -1.395 2.262 C-0.934 1.515 -0.474 0.769 0 0 Z " fill="#48301E" transform="translate(388,296)"/>
<path d="M0 0 C7.518 -0.835 12.059 1.44 18 6 C22.434 10.116 25.643 13.97 27 20 C25.02 20.99 25.02 20.99 23 22 C22.66 21.432 22.319 20.863 21.969 20.277 C17.173 12.638 10.661 4.98 1.688 2.312 C1.131 2.209 0.574 2.106 0 2 C0 1.34 0 0.68 0 0 Z " fill="#C48E52" transform="translate(349,280)"/>
<path d="M0 0 C0.66 0.33 1.32 0.66 2 1 C-1.901 9.107 -5.532 15.666 -13 21 C-13.66 20.67 -14.32 20.34 -15 20 C-14.299 19.361 -13.598 18.721 -12.875 18.062 C-9.284 14.502 -6.696 10.252 -4 6 C-9.821 7.901 -12.456 10.424 -16.301 15.125 C-18.562 17.62 -20.855 18.856 -24 20 C-24.99 20 -25.98 20 -27 20 C-27 19.34 -27 18.68 -27 18 C-26.457 17.758 -25.915 17.515 -25.355 17.266 C-19.809 14.691 -19.809 14.691 -16 10 C-17.32 9.67 -18.64 9.34 -20 9 C-16.242 6.588 -12.494 4.93 -8.312 3.375 C-4.093 1.834 -4.093 1.834 0 0 Z " fill="#462E1D" transform="translate(378,326)"/>
<path d="M0 0 C3.3 0.33 6.6 0.66 10 1 C9.25 9.625 9.25 9.625 7 13 C3.7 12.67 0.4 12.34 -3 12 C-2.257 7.916 -1.171 3.981 0 0 Z " fill="#C79052" transform="translate(233,272)"/>
<path d="M0 0 C3.497 0.389 6.658 0.886 10 2 C8.125 9.625 8.125 9.625 7 13 C-0.625 12.125 -0.625 12.125 -4 11 C-3.525 9.353 -3.045 7.707 -2.562 6.062 C-2.296 5.146 -2.029 4.229 -1.754 3.285 C-1 1 -1 1 0 0 Z " fill="#CA9153" transform="translate(222,269)"/>
<path d="M0 0 C3.731 0.746 6.574 1.532 10 3 C8.775 7.053 7.301 10.444 5 14 C1.042 13.435 -1.666 12.191 -5 10 C-3.35 6.7 -1.7 3.4 0 0 Z " fill="#C89052" transform="translate(211,264)"/>
<path d="M0 0 C3.96 2.475 3.96 2.475 8 5 C6.903 9.388 5.298 12.145 3 16 C-3.75 12.375 -3.75 12.375 -6 9 C-4.02 6.03 -2.04 3.06 0 0 Z " fill="#CA9153" transform="translate(202,257)"/>
<path d="M0 0 C1.65 0.33 3.3 0.66 5 1 C5 4.545 4.387 5.049 2.188 7.688 C-0.903 11.625 -2.473 15.25 -4 20 C-5.65 20 -7.3 20 -9 20 C-8.334 12.011 -5.284 6.038 0 0 Z " fill="#C89153" transform="translate(339,295)"/>
<path d="M0 0 C3.3 0 6.6 0 10 0 C9.387 8.462 9.387 8.462 7.719 10.781 C4.666 12.946 1.637 12.179 -2 12 C-1.34 8.04 -0.68 4.08 0 0 Z " fill="#C48E52" transform="translate(256,274)"/>
<path d="M0 0 C2.97 0 5.94 0 9 0 C8.125 8.625 8.125 8.625 7 12 C3.7 12 0.4 12 -3 12 C-1.125 2.25 -1.125 2.25 0 0 Z " fill="#C79052" transform="translate(245,274)"/>
<path d="M0 0 C-4.208 7.173 -8.857 13.286 -17 16 C-19.333 16.04 -21.667 16.044 -24 16 C-24 15.34 -24 14.68 -24 14 C-23.443 13.816 -22.886 13.631 -22.312 13.441 C-16.234 11.131 -12.899 8.139 -8.922 3.023 C-6.34 0.305 -3.619 -1.81 0 0 Z " fill="#C18C51" transform="translate(375,332)"/>
<path d="M0 0 C0.66 0.33 1.32 0.66 2 1 C-6.241 13.3 -20.495 21.841 -35 25 C-38.662 25.483 -42.312 25.8 -46 26 C-45.67 25.34 -45.34 24.68 -45 24 C-42.646 23.388 -40.316 22.868 -37.938 22.375 C-23.897 19.156 -8.457 12.134 0 0 Z " fill="#462F1D" transform="translate(392,305)"/>
<path d="M0 0 C3.795 1.491 5.61 3.757 8 7 C5.03 11.455 5.03 11.455 2 16 C-0.31 14.02 -2.62 12.04 -5 10 C-3.965 5.861 -2.431 3.45 0 0 Z " fill="#C89052" transform="translate(193,250)"/>
<path d="M0 0 C2.962 0.613 4.381 1.254 7 3 C6.424 5.386 5.778 7.667 5 10 C0.25 9.125 0.25 9.125 -2 8 C-1.125 2.25 -1.125 2.25 0 0 Z M-3 8 C1.845 10.29 1.845 10.29 4 12 C4.938 15.25 4.938 15.25 5 18 C1.982 17.674 0.403 17.389 -1.812 15.25 C-3.196 12.628 -3.244 10.923 -3 8 Z " fill="#C68F52" transform="translate(277,298)"/>
<path d="M0 0 C1.32 0.66 2.64 1.32 4 2 C2.532 5.107 0.8 7.905 -1.125 10.75 C-1.933 11.949 -1.933 11.949 -2.758 13.172 C-3.168 13.775 -3.578 14.378 -4 15 C-6.438 14.188 -6.438 14.188 -9 13 C-9.33 12.01 -9.66 11.02 -10 10 C-7.408 5.127 -4.621 2.731 0 0 Z " fill="#E2B77C" transform="translate(130,233)"/>
<path d="M0 0 C6.018 0.027 10.014 0.886 14.426 5.102 C17.18 8.423 19.132 12.127 21 16 C20.01 16.99 19.02 17.98 18 19 C17.455 18.203 16.909 17.407 16.348 16.586 C11.992 10.465 8.27 5.823 1.652 1.988 C1.107 1.662 0.562 1.336 0 1 C0 0.67 0 0.34 0 0 Z " fill="#C38D51" transform="translate(360,279)"/>
<path d="M0 0 C-0.33 0.66 -0.66 1.32 -1 2 C-3.562 2.625 -3.562 2.625 -6 3 C-5.01 4.176 -5.01 4.176 -4 5.375 C-2 8 -2 8 -2 10 C-5.875 8.25 -5.875 8.25 -7 6 C-8.915 6.122 -8.915 6.122 -11 7 C-12.771 9.479 -12.771 9.479 -14 12 C-13.34 12 -12.68 12 -12 12 C-12 12.66 -12 13.32 -12 14 C-11.361 14.289 -10.721 14.577 -10.062 14.875 C-8 16 -8 16 -7 18 C-10.871 17.426 -13.082 15.513 -16 13 C-17.32 14.32 -18.64 15.64 -20 17 C-19.36 11.561 -17.198 7.737 -12.875 4.32 C-3.816 -1.908 -3.816 -1.908 0 0 Z " fill="#472F1D" transform="translate(223,307)"/>
<path d="M0 0 C1.32 0.33 2.64 0.66 4 1 C4 5.33 3.688 5.88 1.125 9.062 C-0.689 11.346 -2.379 13.568 -4 16 C-6.625 16.188 -6.625 16.188 -9 16 C-7.281 9.35 -4.846 4.878 0 0 Z " fill="#C68F52" transform="translate(346,299)"/>
<path d="M0 0 C-1.281 7.755 -5.063 14.027 -11.219 18.914 C-13.739 20.45 -16.08 20.858 -19 21 C-18.299 20.34 -17.598 19.68 -16.875 19 C-12.448 14.561 -8.778 9.545 -5.75 4.062 C-3.429 0 -3.429 0 0 0 Z " fill="#C58E52" transform="translate(383,327)"/>
<path d="M0 0 C3.399 1.133 4.053 2.125 6 5 C4.348 8.579 2.217 11.748 0 15 C-3.081 12.227 -4.688 9.937 -6 6 C-4 4 -2 2 0 0 Z " fill="#C89153" transform="translate(187,242)"/>
<path d="M0 0 C2.418 0.283 4.834 0.576 7.25 0.875 C7.932 0.954 8.614 1.032 9.316 1.113 C12.907 1.566 15.893 2.094 19 4 C18.67 4.99 18.34 5.98 18 7 C13.71 7.66 9.42 8.32 5 9 C3.35 6.03 1.7 3.06 0 0 Z " fill="#BF8E59" transform="translate(191,238)"/>
<path d="M0 0 C1.938 2.22 3.408 4.499 5 7 C0.545 8.485 0.545 8.485 -4 10 C-10 3.25 -10 3.25 -10 1 C-6.269 -0.812 -3.907 -1.66 0 0 Z " fill="#C79052" transform="translate(227,309)"/>
<path d="M0 0 C4.656 0.034 8.185 1.427 12.438 3.25 C12.438 4.24 12.438 5.23 12.438 6.25 C9.938 8 9.938 8 6.438 9.25 C2.326 8.158 -0.753 6.16 -3.562 3 C-4.058 2.134 -4.058 2.134 -4.562 1.25 C-3.562 0.25 -3.562 0.25 0 0 Z " fill="#A77847" transform="translate(140.5625,305.75)"/>
<path d="M0 0 C2.969 1.44 4.322 3.228 6.062 6 C5.888 9.052 5.25 9.813 3.062 12 C0.049 11.611 -1.334 10.735 -3.938 9 C-3.938 8.34 -3.938 7.68 -3.938 7 C-4.597 7 -5.257 7 -5.938 7 C-5.531 4.64 -5.039 3.141 -3.625 1.188 C-1.938 0 -1.938 0 0 0 Z " fill="#C89052" transform="translate(214.9375,312)"/>
<path d="M0 0 C2.625 -0.188 2.625 -0.188 5 0 C3.97 2.917 2.882 5.164 1.062 7.688 C-1.572 11.919 -2.749 16.206 -4 21 C-4.99 21 -5.98 21 -7 21 C-6.488 12.937 -4.493 6.74 0 0 Z " fill="#C18C51" transform="translate(332,293)"/>
<path d="M0 0 C1.76 5.279 -1.719 10.163 -4 15 C-5.762 18.439 -7.187 20.594 -10.75 22.375 C-11.493 22.581 -12.235 22.788 -13 23 C-11.945 20.886 -10.886 18.775 -9.816 16.668 C-7.871 12.82 -5.964 9.01 -4.375 5 C-3 2 -3 2 0 0 Z M-15 23 C-13 24 -13 24 -13 24 Z " fill="#C08C52" transform="translate(390,321)"/>
<path d="M0 0 C-0.26 5.28 -0.26 5.28 -1 8 C-4.247 10.808 -5.647 11 -10 11 C-9.67 7.7 -9.34 4.4 -9 1 C-5.847 0.299 -3.273 0 0 0 Z " fill="#C89053" transform="translate(276,273)"/>
<path d="M0 0 C-0.072 0.669 -0.144 1.338 -0.219 2.027 C-1.089 11.035 -1.096 19.963 -1 29 C-4.437 25.765 -4.857 23.51 -5.125 18.805 C-5.276 12.785 -4.885 6.759 -3 1 C-1 0 -1 0 0 0 Z " fill="#523823" transform="translate(201,169)"/>
<path d="M0 0 C2.64 1.98 5.28 3.96 8 6 C7 10 7 10 6 13 C2.743 12.438 0.962 11.71 -1 9 C-1.812 6 -1.812 6 -2 3 C-1.34 2.01 -0.68 1.02 0 0 Z " fill="#C68F52" transform="translate(207,319)"/>
<path d="M0 0 C4.75 0.875 4.75 0.875 7 2 C6.67 2.99 6.34 3.98 6 5 C4.35 4.67 2.7 4.34 1 4 C-3.839 10.342 -6.34 16.208 -8 24 C-7.01 24.33 -6.02 24.66 -5 25 C-6.98 25 -8.96 25 -11 25 C-9.74 16.909 -7.677 9.193 -2 3 C-1.34 3 -0.68 3 0 3 C0 2.01 0 1.02 0 0 Z " fill="#48301E" transform="translate(338,292)"/>
<path d="M0 0 C-9.438 8.758 -9.438 8.758 -16.688 9.25 C-20 9 -20 9 -22 7 C-21.432 6.83 -20.863 6.66 -20.277 6.484 C-16.353 5.253 -12.731 3.985 -9.188 1.875 C-3.243 -1.622 -3.243 -1.622 0 0 Z " fill="#C38E52" transform="translate(364,336)"/>
<path d="M0 0 C0.124 1.196 0.248 2.392 0.375 3.625 C1.114 6.776 1.763 7.816 4.359 9.832 C6.177 10.887 8.018 11.902 9.883 12.871 C10.581 13.244 11.28 13.616 12 14 C12 14.33 12 14.66 12 15 C6.962 15.378 2.299 14.763 -2 12 C-2.875 9.125 -2.875 9.125 -3 6 C-3.622 4.316 -4.275 2.642 -5 1 C-1.125 0 -1.125 0 0 0 Z " fill="#462E1C" transform="translate(284,307)"/>
<path d="M0 0 C1.765 3.088 2 4.233 2 8 C0.469 9.484 0.469 9.484 -1.5 10.75 C-2.475 11.392 -2.475 11.392 -3.469 12.047 C-3.974 12.361 -4.479 12.676 -5 13 C-6 12 -6 12 -6.312 8.188 C-6.283 4.953 -6.149 4.199 -4.125 1.5 C-2 0 -2 0 0 0 Z " fill="#C99253" transform="translate(185,233)"/>
<path d="M0 0 C2.622 1.049 3.794 1.649 5.25 4.125 C5.498 4.744 5.745 5.363 6 6 C1.607 8.021 -2.153 9.409 -7 10 C-2.857 2.429 -2.857 2.429 0 0 Z " fill="#C58E51" transform="translate(352,304)"/>
<path d="M0 0 C0.66 0.33 1.32 0.66 2 1 C-1.901 9.107 -5.532 15.666 -13 21 C-13.66 20.67 -14.32 20.34 -15 20 C-14.299 19.361 -13.598 18.721 -12.875 18.062 C-9.284 14.502 -6.696 10.252 -4 6 C-4.33 5.34 -4.66 4.68 -5 4 C-3.366 2.292 -2.131 1.065 0 0 Z " fill="#4A311F" transform="translate(378,326)"/>
<path d="M0 0 C7.311 0.487 7.311 0.487 10.438 2.812 C11.967 4.954 12.631 6.415 13 9 C5.939 8.761 5.939 8.761 3.355 6.668 C0 2.694 0 2.694 0 0 Z " fill="#C28D52" transform="translate(228,307)"/>
<path d="M0 0 C3.438 0.25 3.438 0.25 7 1 C7.66 1.99 8.32 2.98 9 4 C6.75 6.062 6.75 6.062 4 8 C0.896 7.817 -0.342 6.772 -3 5 C-1.125 1.125 -1.125 1.125 0 0 Z " fill="#C68F52" transform="translate(283,292)"/>
<path d="M0 0 C-1.217 2.434 -2.225 2.847 -4.562 4.188 C-11.366 8.34 -16.955 13.089 -21 20 C-21.33 19.34 -21.66 18.68 -22 18 C-20.687 15.984 -19.354 13.989 -18 12 C-17.464 11.196 -16.928 10.391 -16.375 9.562 C-11.918 4.754 -6.714 0 0 0 Z " fill="#A67847" transform="translate(179,225)"/>
<path d="M0 0 C2 1 2 1 3 3 C1.793 3.402 1.793 3.402 0.562 3.812 C-0.283 4.204 -1.129 4.596 -2 5 C-2.33 5.99 -2.66 6.98 -3 8 C-2.34 8.33 -1.68 8.66 -1 9 C-1 9.66 -1 10.32 -1 11 C-2.98 10.34 -4.96 9.68 -7 9 C-7.66 11.31 -8.32 13.62 -9 16 C-9.99 16 -10.98 16 -12 16 C-9.602 8.069 -6.813 4.499 0 0 Z " fill="#4C3320" transform="translate(284,289)"/>
<path d="M0 0 C0.66 0.33 1.32 0.66 2 1 C-2.921 6.819 -12.027 8.095 -19.25 8.75 C-20.832 8.848 -22.416 8.938 -24 9 C-23.67 8.34 -23.34 7.68 -23 7 C-20.456 6.268 -17.955 5.635 -15.375 5.062 C-11.106 4.107 -7.094 3.129 -3.102 1.309 C-1.566 0.661 -1.566 0.661 0 0 Z " fill="#49311F" transform="translate(370,322)"/>
<path d="M0 0 C0.66 0 1.32 0 2 0 C-0.129 7.57 -6.42 13.148 -13 17 C-13.66 16.67 -14.32 16.34 -15 16 C-14.169 15.264 -13.337 14.528 -12.48 13.77 C-11.383 12.784 -10.285 11.798 -9.188 10.812 C-8.64 10.33 -8.093 9.847 -7.529 9.35 C-4.325 6.456 -2.182 3.765 0 0 Z " fill="#472F1E" transform="translate(388,296)"/>
<path d="M0 0 C5.621 1.466 5.621 1.466 7.375 3.938 C8 6 8 6 8 9 C4.938 8.669 3.399 8.399 1.188 6.188 C0 4 0 4 0 0 Z " fill="#CA9253" transform="translate(274,307)"/>
<path d="M0 0 C6.811 3.122 10.796 7.859 15 14 C15.33 14.99 15.66 15.98 16 17 C15.01 17 14.02 17 13 17 C11.641 15.242 11.641 15.242 10.25 12.875 C7.721 8.84 5.098 6.061 1.32 3.191 C0.885 2.798 0.449 2.405 0 2 C0 1.34 0 0.68 0 0 Z " fill="#48301E" transform="translate(362,281)"/>
<path d="M0 0 C7.828 0.265 14.077 1.241 21 5 C17.163 6.279 15.048 5.529 11.125 4.625 C9.911 4.349 8.696 4.073 7.445 3.789 C6.308 3.529 5.171 3.268 4 3 C2.335 2.66 0.669 2.324 -1 2 C-0.67 1.34 -0.34 0.68 0 0 Z " fill="#65482E" transform="translate(216,242)"/>
<path d="M0 0 C3.255 0.58 4.937 1.526 7.25 3.875 C7.771 4.388 8.292 4.901 8.828 5.43 C10 7 10 7 10 10 C6.745 9.42 5.063 8.474 2.75 6.125 C2.229 5.612 1.708 5.099 1.172 4.57 C0 3 0 3 0 0 Z " fill="#462E1C" transform="translate(215,174)"/>
<path d="M0 0 C7.464 3.274 13.552 7.367 17 15 C14 15 14 15 12.422 13.426 C11.87 12.728 11.318 12.031 10.75 11.312 C8.377 8.454 6.142 6.205 3.062 4.125 C2.052 3.424 1.041 2.723 0 2 C0 1.34 0 0.68 0 0 Z " fill="#442C1B" transform="translate(353,283)"/>
<path d="M0 0 C0 0.66 0 1.32 0 2 C-1.109 2.205 -2.217 2.41 -3.359 2.621 C-4.823 2.893 -6.286 3.165 -7.75 3.438 C-8.48 3.572 -9.209 3.707 -9.961 3.846 C-13.335 4.475 -16.676 5.143 -20 6 C-20 5.34 -20 4.68 -20 4 C-6.367 -0.592 -6.367 -0.592 0 0 Z " fill="#5F432B" transform="translate(236,251)"/>
<path d="M0 0 C6.81 3.187 11.438 8.062 16 14 C16 14.66 16 15.32 16 16 C12.619 14.873 11.892 13.946 9.688 11.25 C7.458 8.603 5.277 6.273 2.562 4.125 C1.717 3.424 0.871 2.723 0 2 C0 1.34 0 0.68 0 0 Z " fill="#4A321F" transform="translate(349,289)"/>
<path d="M0 0 C0.33 0 0.66 0 1 0 C0.706 6.346 -0.392 11.663 -4 17 C-4.66 17.33 -5.32 17.66 -6 18 C-5.795 17.432 -5.59 16.863 -5.379 16.277 C-4.059 12.494 -3.007 9.049 -2.438 5.062 C-2 2 -2 2 0 0 Z " fill="#BF8A50" transform="translate(395,316)"/>
<path d="M0 0 C7.233 2.09 7.233 2.09 9 5 C8.688 8.188 8.688 8.188 8 11 C5.643 8.809 3.979 6.561 2.312 3.812 C1.876 3.097 1.439 2.382 0.988 1.645 C0.662 1.102 0.336 0.559 0 0 Z " fill="#C28C51" transform="translate(375,282)"/>
<path d="M0 0 C5.28 0 10.56 0 16 0 C16 0.99 16 1.98 16 3 C13.708 3.027 11.417 3.046 9.125 3.062 C7.849 3.074 6.573 3.086 5.258 3.098 C2 3 2 3 0 2 C0 1.34 0 0.68 0 0 Z " fill="#583D27" transform="translate(331,329)"/>
<path d="M0 0 C4.95 0.33 9.9 0.66 15 1 C12.575 3.425 11.412 3.472 8.062 3.875 C7.187 3.996 6.312 4.117 5.41 4.242 C4.615 4.162 3.819 4.082 3 4 C2.01 2.68 1.02 1.36 0 0 Z " fill="#BF8B51" transform="translate(335,337)"/>
<path d="M0 0 C-2.366 2.615 -4.86 4.39 -8 6 C-8.66 5.67 -9.32 5.34 -10 5 C-10 4.01 -10 3.02 -10 2 C-9.34 2 -8.68 2 -8 2 C-8 1.34 -8 0.68 -8 0 C-4.713 -0.8 -3.29 -1.097 0 0 Z " fill="#4D3421" transform="translate(359,335)"/>
<path d="M0 0 C0 4.091 -1.699 5.449 -4.332 8.414 C-6.369 10.351 -8.291 11.283 -11 12 C-9.861 8.583 -8.325 7.467 -5.566 5.273 C-3.569 3.649 -1.784 1.853 0 0 Z " fill="#472F1E" transform="translate(374,335)"/>
<path d="M0 0 C3.63 0 7.26 0 11 0 C11 0.66 11 1.32 11 2 C9.02 2 7.04 2 5 2 C5 2.66 5 3.32 5 4 C2.03 3.505 2.03 3.505 -1 3 C-0.67 2.01 -0.34 1.02 0 0 Z " fill="#4E3521" transform="translate(223,305)"/>
<path d="M0 0 C3.175 0.34 4.023 1.025 6.25 3.438 C8 6 8 6 8 8 C4.825 7.66 3.977 6.975 1.75 4.562 C0 2 0 2 0 0 Z " fill="#4E3522" transform="translate(210,180)"/>
<path d="M0 0 C4.675 -0.326 7.167 0.294 11 3 C9.25 4.125 9.25 4.125 7 5 C3.99 3.997 2.114 2.325 0 0 Z " fill="#C08B51" transform="translate(288,290)"/>
<path d="M0 0 C1.98 0 3.96 0 6 0 C6.66 1.32 7.32 2.64 8 4 C4.7 4 1.4 4 -2 4 C-1.34 2.68 -0.68 1.36 0 0 Z " fill="#4D3522" transform="translate(243,209)"/>
<path d="M0 0 C0.33 0.66 0.66 1.32 1 2 C1.66 2.33 2.32 2.66 3 3 C2.67 3.66 2.34 4.32 2 5 C-1.3 5 -4.6 5 -8 5 C-5.596 1.393 -4.053 1.145 0 0 Z " fill="#513824" transform="translate(336,313)"/>
<path d="M0 0 C-0.33 3.96 -0.66 7.92 -1 12 C-4 9 -4 9 -4.145 6.992 C-3.829 4.983 -3.417 2.99 -3 1 C-1 0 -1 0 0 0 Z " fill="#523A27" transform="translate(201,169)"/>
<path d="M0 0 C0.66 0.66 1.32 1.32 2 2 C1.756 4.526 1.176 5.785 -0.438 7.75 C-2 9 -2 9 -4 9 C-2.941 5.597 -1.991 2.986 0 0 Z " fill="#B7854E" transform="translate(182,226)"/>
<path d="M0 0 C1.32 0 2.64 0 4 0 C2.375 5.75 2.375 5.75 -1 8 C-0.67 5.36 -0.34 2.72 0 0 Z " fill="#C28C52" transform="translate(278,272)"/>
<path d="M0 0 C5.75 -0.125 5.75 -0.125 8 1 C8 1.99 8 2.98 8 4 C6.608 3.722 6.608 3.722 5.188 3.438 C1.987 2.759 1.987 2.759 -1 4 C-0.67 2.68 -0.34 1.36 0 0 Z " fill="#4C3320" transform="translate(290,211)"/>
<path d="M0 0 C-2.771 3.81 -6.629 4.068 -11 5 C-8.11 1.789 -4.479 -2.239 0 0 Z " fill="#48301E" transform="translate(372,323)"/>
<path d="M0 0 C1.097 3.29 0.8 4.713 0 8 C0.99 8.33 1.98 8.66 3 9 C1.02 9 -0.96 9 -3 9 C-2.25 2.25 -2.25 2.25 0 0 Z " fill="#412A19" transform="translate(330,308)"/>
<path d="M0 0 C0.987 2.666 1.028 3.901 0.25 6.688 C-1 9 -1 9 -4 10 C-3.524 8.52 -3.044 7.041 -2.562 5.562 C-2.296 4.739 -2.029 3.915 -1.754 3.066 C-1 1 -1 1 0 0 Z " fill="#533A26" transform="translate(392,321)"/>
<path d="M0 0 C-0.33 0.99 -0.66 1.98 -1 3 C-2.052 2.536 -2.052 2.536 -3.125 2.062 C-6.089 0.967 -8.877 0.436 -12 0 C-7.601 -2.77 -4.695 -1.565 0 0 Z " fill="#4E3522" transform="translate(349,288)"/>
<path d="M0 0 C1.439 0.087 2.876 0.196 4.312 0.312 C5.113 0.371 5.914 0.429 6.738 0.488 C9.363 1.082 10.308 1.958 12 4 C10.373 3.718 8.749 3.424 7.125 3.125 C5.768 2.881 5.768 2.881 4.383 2.633 C2 2 2 2 0 0 Z " fill="#563B26" transform="translate(225,244)"/>
<path d="M0 0 C7.714 4 7.714 4 9 8 C5.562 6.472 2.81 4.498 0 2 C0 1.34 0 0.68 0 0 Z " fill="#432B1A" transform="translate(349,289)"/>
<path d="M0 0 C3.775 1.091 6.47 1.908 9 5 C5.265 4.502 3.188 4.125 0 2 C0 1.34 0 0.68 0 0 Z " fill="#68513E" transform="translate(316,252)"/>
<path d="M0 0 C0 3.258 -0.552 5.104 -2 8 C-2.99 8.33 -3.98 8.66 -5 9 C-3.375 2.25 -3.375 2.25 0 0 Z " fill="#4A311F" transform="translate(334,300)"/>
<path d="M0 0 C-0.33 0.66 -0.66 1.32 -1 2 C-3.322 2.407 -5.657 2.744 -8 3 C-8 2.01 -8 1.02 -8 0 C-4.713 -0.8 -3.29 -1.097 0 0 Z " fill="#4D3421" transform="translate(353,321)"/>
<path d="M0 0 C0.66 0.33 1.32 0.66 2 1 C-0.174 3.5 -1.73 4.436 -5 5 C-4 2 -4 2 -2.062 0.75 C-1.382 0.502 -0.701 0.255 0 0 Z " fill="#4A3220" transform="translate(371,312)"/>
<path d="M0 0 C0.99 0.33 1.98 0.66 3 1 C3 1.66 3 2.32 3 3 C1.02 3.33 -0.96 3.66 -3 4 C-2.01 2.68 -1.02 1.36 0 0 Z " fill="#462E1C" transform="translate(358,309)"/>
<path d="M0 0 C1.65 1.65 3.3 3.3 5 5 C4.01 5.33 3.02 5.66 2 6 C1.01 4.35 0.02 2.7 -1 1 C-0.67 0.67 -0.34 0.34 0 0 Z " fill="#4A311F" transform="translate(355,303)"/>
<path d="M0 0 C1.32 0 2.64 0 4 0 C4.33 0.99 4.66 1.98 5 3 C4.01 3 3.02 3 2 3 C1.34 2.01 0.68 1.02 0 0 Z M4 4 C4.66 4 5.32 4 6 4 C5.67 4.66 5.34 5.32 5 6 C4.67 5.34 4.34 4.68 4 4 Z " fill="#D2AA73" transform="translate(172,315)"/>
<path d="M0 0 C0.99 0 1.98 0 3 0 C3.186 0.959 3.186 0.959 3.375 1.938 C3.684 2.958 3.684 2.958 4 4 C4.66 4.33 5.32 4.66 6 5 C4.68 5 3.36 5 2 5 C1.34 3.35 0.68 1.7 0 0 Z " fill="#4E3522" transform="translate(368,298)"/>
<path d="M0 0 C0.66 0 1.32 0 2 0 C2 1.65 2 3.3 2 5 C1.01 5 0.02 5 -1 5 C-0.67 3.35 -0.34 1.7 0 0 Z " fill="#E3E0DE" transform="translate(290,231)"/>
<path d="M0 0 C0.99 0 1.98 0 3 0 C3 1.32 3 2.64 3 4 C2.01 4 1.02 4 0 4 C0 2.68 0 1.36 0 0 Z " fill="#E7E4E1" transform="translate(247,231)"/>
<path d="M0 0 C2.125 0.375 2.125 0.375 4 1 C3.01 1.66 2.02 2.32 1 3 C0.01 2.67 -0.98 2.34 -2 2 C-1.34 1.34 -0.68 0.68 0 0 Z " fill="#442D1B" transform="translate(354,319)"/>
<path d="M0 0 C1.938 0.812 1.938 0.812 4 2 C4.33 2.99 4.66 3.98 5 5 C2 4 2 4 0.812 1.938 C0.41 0.978 0.41 0.978 0 0 Z " fill="#4A321F" transform="translate(227,309)"/>
<path d="M0 0 C0.99 0.33 1.98 0.66 3 1 C3 1.66 3 2.32 3 3 C2.01 2.67 1.02 2.34 0 2 C0 1.34 0 0.68 0 0 Z " fill="#4F3622" transform="translate(148,268)"/>
</svg>